<mxfile host="Electron" agent="Mozilla/5.0 (Windows NT 10.0; Win64; x64) AppleWebKit/537.36 (KHTML, like Gecko) draw.io/24.7.8 Chrome/128.0.6613.36 Electron/32.0.1 Safari/537.36" version="24.7.8">
  <diagram name="Page-1" id="hXL5OIoSsKzc7COv7Fgj">
    <mxGraphModel dx="2303" dy="1104" grid="1" gridSize="10" guides="1" tooltips="1" connect="1" arrows="1" fold="1" page="1" pageScale="1" pageWidth="850" pageHeight="1100" math="0" shadow="0">
      <root>
        <mxCell id="0" />
        <mxCell id="1" parent="0" />
        <mxCell id="PCElJ9IsrPrvmtagwimQ-1" value="" style="edgeStyle=orthogonalEdgeStyle;rounded=0;orthogonalLoop=1;jettySize=auto;html=1;" edge="1" parent="1" source="dmDb0AKHDMFlz-anglKl-1" target="dmDb0AKHDMFlz-anglKl-3">
          <mxGeometry relative="1" as="geometry" />
        </mxCell>
        <mxCell id="dmDb0AKHDMFlz-anglKl-1" value="Start" style="ellipse;whiteSpace=wrap;html=1;" parent="1" vertex="1">
          <mxGeometry x="380" y="10" width="120" height="80" as="geometry" />
        </mxCell>
        <mxCell id="dmDb0AKHDMFlz-anglKl-2" value="End" style="ellipse;whiteSpace=wrap;html=1;" parent="1" vertex="1">
          <mxGeometry x="270" y="2800" width="120" height="80" as="geometry" />
        </mxCell>
        <mxCell id="PCElJ9IsrPrvmtagwimQ-2" value="" style="edgeStyle=orthogonalEdgeStyle;rounded=0;orthogonalLoop=1;jettySize=auto;html=1;" edge="1" parent="1" source="dmDb0AKHDMFlz-anglKl-3" target="dmDb0AKHDMFlz-anglKl-5">
          <mxGeometry relative="1" as="geometry" />
        </mxCell>
        <mxCell id="dmDb0AKHDMFlz-anglKl-3" value="input customer_usage" style="shape=parallelogram;perimeter=parallelogramPerimeter;whiteSpace=wrap;html=1;fixedSize=1;" parent="1" vertex="1">
          <mxGeometry x="365" y="130" width="150" height="50" as="geometry" />
        </mxCell>
        <mxCell id="PCElJ9IsrPrvmtagwimQ-5" value="" style="edgeStyle=orthogonalEdgeStyle;rounded=0;orthogonalLoop=1;jettySize=auto;html=1;" edge="1" parent="1" source="dmDb0AKHDMFlz-anglKl-4" target="dmDb0AKHDMFlz-anglKl-13">
          <mxGeometry relative="1" as="geometry" />
        </mxCell>
        <mxCell id="dmDb0AKHDMFlz-anglKl-4" value="input phone_number" style="shape=parallelogram;perimeter=parallelogramPerimeter;whiteSpace=wrap;html=1;fixedSize=1;" parent="1" vertex="1">
          <mxGeometry x="350" y="310" width="180" height="60" as="geometry" />
        </mxCell>
        <mxCell id="PCElJ9IsrPrvmtagwimQ-3" value="" style="edgeStyle=orthogonalEdgeStyle;rounded=0;orthogonalLoop=1;jettySize=auto;html=1;" edge="1" parent="1" source="dmDb0AKHDMFlz-anglKl-5" target="dmDb0AKHDMFlz-anglKl-4">
          <mxGeometry relative="1" as="geometry" />
        </mxCell>
        <mxCell id="dmDb0AKHDMFlz-anglKl-5" value="Input customer_area_ code" style="shape=parallelogram;perimeter=parallelogramPerimeter;whiteSpace=wrap;html=1;fixedSize=1;" parent="1" vertex="1">
          <mxGeometry x="340" y="220" width="200" height="50" as="geometry" />
        </mxCell>
        <mxCell id="PCElJ9IsrPrvmtagwimQ-33" value="" style="edgeStyle=orthogonalEdgeStyle;rounded=0;orthogonalLoop=1;jettySize=auto;html=1;" edge="1" parent="1" source="dmDb0AKHDMFlz-anglKl-6" target="PCElJ9IsrPrvmtagwimQ-32">
          <mxGeometry relative="1" as="geometry" />
        </mxCell>
        <mxCell id="dmDb0AKHDMFlz-anglKl-6" value="output &quot;Number of text messages sent: &quot; + customer_total_number_of_text_message_sent" style="shape=parallelogram;perimeter=parallelogramPerimeter;whiteSpace=wrap;html=1;fixedSize=1;" parent="1" vertex="1">
          <mxGeometry x="485" y="2250" width="330" height="40" as="geometry" />
        </mxCell>
        <mxCell id="dmDb0AKHDMFlz-anglKl-15" style="edgeStyle=orthogonalEdgeStyle;rounded=0;orthogonalLoop=1;jettySize=auto;html=1;entryX=0.5;entryY=0;entryDx=0;entryDy=0;" parent="1" source="dmDb0AKHDMFlz-anglKl-9" target="dmDb0AKHDMFlz-anglKl-11" edge="1">
          <mxGeometry relative="1" as="geometry" />
        </mxCell>
        <mxCell id="dmDb0AKHDMFlz-anglKl-27" style="edgeStyle=orthogonalEdgeStyle;rounded=0;orthogonalLoop=1;jettySize=auto;html=1;entryX=0.5;entryY=0;entryDx=0;entryDy=0;" parent="1" source="dmDb0AKHDMFlz-anglKl-9" target="dmDb0AKHDMFlz-anglKl-26" edge="1">
          <mxGeometry relative="1" as="geometry" />
        </mxCell>
        <mxCell id="dmDb0AKHDMFlz-anglKl-9" value="if customer_usage&amp;nbsp; &amp;lt;= 100" style="rhombus;whiteSpace=wrap;html=1;" parent="1" vertex="1">
          <mxGeometry x="355" y="1040" width="170" height="120" as="geometry" />
        </mxCell>
        <mxCell id="PCElJ9IsrPrvmtagwimQ-21" style="edgeStyle=orthogonalEdgeStyle;rounded=0;orthogonalLoop=1;jettySize=auto;html=1;entryX=0;entryY=0.5;entryDx=0;entryDy=0;exitX=0.5;exitY=1;exitDx=0;exitDy=0;" edge="1" parent="1" source="dmDb0AKHDMFlz-anglKl-11" target="dmDb0AKHDMFlz-anglKl-17">
          <mxGeometry relative="1" as="geometry">
            <mxPoint x="-10" y="1020" as="sourcePoint" />
            <mxPoint x="40" y="1840" as="targetPoint" />
          </mxGeometry>
        </mxCell>
        <mxCell id="dmDb0AKHDMFlz-anglKl-11" value="total_bill = total_bill + basic_fee" style="rounded=0;whiteSpace=wrap;html=1;" parent="1" vertex="1">
          <mxGeometry x="60" y="1350" width="120" height="60" as="geometry" />
        </mxCell>
        <mxCell id="PCElJ9IsrPrvmtagwimQ-6" value="" style="edgeStyle=orthogonalEdgeStyle;rounded=0;orthogonalLoop=1;jettySize=auto;html=1;" edge="1" parent="1" source="dmDb0AKHDMFlz-anglKl-13" target="dmDb0AKHDMFlz-anglKl-14">
          <mxGeometry relative="1" as="geometry" />
        </mxCell>
        <mxCell id="dmDb0AKHDMFlz-anglKl-13" value="total_bill = 0" style="shape=parallelogram;perimeter=parallelogramPerimeter;whiteSpace=wrap;html=1;fixedSize=1;" parent="1" vertex="1">
          <mxGeometry x="380" y="400" width="120" height="60" as="geometry" />
        </mxCell>
        <mxCell id="PCElJ9IsrPrvmtagwimQ-10" value="" style="edgeStyle=orthogonalEdgeStyle;rounded=0;orthogonalLoop=1;jettySize=auto;html=1;" edge="1" parent="1" source="dmDb0AKHDMFlz-anglKl-14" target="dmDb0AKHDMFlz-anglKl-16">
          <mxGeometry relative="1" as="geometry" />
        </mxCell>
        <mxCell id="dmDb0AKHDMFlz-anglKl-14" value="basic_fee = 5" style="shape=parallelogram;perimeter=parallelogramPerimeter;whiteSpace=wrap;html=1;fixedSize=1;" parent="1" vertex="1">
          <mxGeometry x="380" y="490" width="120" height="60" as="geometry" />
        </mxCell>
        <mxCell id="PCElJ9IsrPrvmtagwimQ-13" value="" style="edgeStyle=orthogonalEdgeStyle;rounded=0;orthogonalLoop=1;jettySize=auto;html=1;" edge="1" parent="1" source="dmDb0AKHDMFlz-anglKl-16" target="PCElJ9IsrPrvmtagwimQ-4">
          <mxGeometry relative="1" as="geometry" />
        </mxCell>
        <mxCell id="dmDb0AKHDMFlz-anglKl-16" value="Tax_rate = .14" style="shape=parallelogram;perimeter=parallelogramPerimeter;whiteSpace=wrap;html=1;fixedSize=1;" parent="1" vertex="1">
          <mxGeometry x="380" y="590" width="120" height="60" as="geometry" />
        </mxCell>
        <mxCell id="PCElJ9IsrPrvmtagwimQ-25" value="" style="edgeStyle=orthogonalEdgeStyle;rounded=0;orthogonalLoop=1;jettySize=auto;html=1;" edge="1" parent="1" source="dmDb0AKHDMFlz-anglKl-17" target="dmDb0AKHDMFlz-anglKl-18">
          <mxGeometry relative="1" as="geometry" />
        </mxCell>
        <mxCell id="dmDb0AKHDMFlz-anglKl-17" value="&lt;font face=&quot;Times New Roman&quot; style=&quot;font-size: 18px;&quot;&gt;&lt;b&gt;total_bill_with_tax&amp;nbsp;= total_bill * Tax_rate&lt;/b&gt;&lt;/font&gt;" style="rounded=0;whiteSpace=wrap;html=1;" parent="1" vertex="1">
          <mxGeometry x="155" y="1720" width="410" height="120" as="geometry" />
        </mxCell>
        <mxCell id="dmDb0AKHDMFlz-anglKl-23" style="edgeStyle=orthogonalEdgeStyle;rounded=0;orthogonalLoop=1;jettySize=auto;html=1;entryX=0.5;entryY=0;entryDx=0;entryDy=0;" parent="1" source="dmDb0AKHDMFlz-anglKl-18" target="dmDb0AKHDMFlz-anglKl-20" edge="1">
          <mxGeometry relative="1" as="geometry" />
        </mxCell>
        <mxCell id="PCElJ9IsrPrvmtagwimQ-27" value="" style="edgeStyle=orthogonalEdgeStyle;rounded=0;orthogonalLoop=1;jettySize=auto;html=1;exitX=1;exitY=0.5;exitDx=0;exitDy=0;entryX=0.5;entryY=0;entryDx=0;entryDy=0;" edge="1" parent="1" source="dmDb0AKHDMFlz-anglKl-18" target="PCElJ9IsrPrvmtagwimQ-26">
          <mxGeometry relative="1" as="geometry">
            <mxPoint x="510" y="1965" as="sourcePoint" />
            <mxPoint x="660" y="2030" as="targetPoint" />
          </mxGeometry>
        </mxCell>
        <mxCell id="dmDb0AKHDMFlz-anglKl-18" value="total_bill_with_tax &amp;lt; 10" style="rhombus;whiteSpace=wrap;html=1;" parent="1" vertex="1">
          <mxGeometry x="270" y="1940" width="180" height="110" as="geometry" />
        </mxCell>
        <mxCell id="PCElJ9IsrPrvmtagwimQ-35" style="edgeStyle=orthogonalEdgeStyle;rounded=0;orthogonalLoop=1;jettySize=auto;html=1;entryX=0.5;entryY=0;entryDx=0;entryDy=0;exitX=0.5;exitY=1;exitDx=0;exitDy=0;" edge="1" parent="1" source="dmDb0AKHDMFlz-anglKl-20" target="dmDb0AKHDMFlz-anglKl-2">
          <mxGeometry relative="1" as="geometry">
            <mxPoint x="70" y="2190" as="sourcePoint" />
            <mxPoint x="180" y="2920" as="targetPoint" />
          </mxGeometry>
        </mxCell>
        <mxCell id="dmDb0AKHDMFlz-anglKl-20" value="output &quot; Your bill for this month will be, &quot; + total bill" style="shape=parallelogram;perimeter=parallelogramPerimeter;whiteSpace=wrap;html=1;fixedSize=1;" parent="1" vertex="1">
          <mxGeometry x="-150" y="2050" width="380" height="40" as="geometry" />
        </mxCell>
        <mxCell id="dmDb0AKHDMFlz-anglKl-39" style="edgeStyle=orthogonalEdgeStyle;rounded=0;orthogonalLoop=1;jettySize=auto;html=1;entryX=0.5;entryY=0;entryDx=0;entryDy=0;" parent="1" source="dmDb0AKHDMFlz-anglKl-26" target="dmDb0AKHDMFlz-anglKl-28" edge="1">
          <mxGeometry relative="1" as="geometry" />
        </mxCell>
        <mxCell id="PCElJ9IsrPrvmtagwimQ-15" style="edgeStyle=orthogonalEdgeStyle;rounded=0;orthogonalLoop=1;jettySize=auto;html=1;entryX=0.5;entryY=0;entryDx=0;entryDy=0;" edge="1" parent="1" source="dmDb0AKHDMFlz-anglKl-26" target="dmDb0AKHDMFlz-anglKl-37">
          <mxGeometry relative="1" as="geometry" />
        </mxCell>
        <mxCell id="dmDb0AKHDMFlz-anglKl-26" value="else if customer_usage &amp;lt;= 300" style="rhombus;whiteSpace=wrap;html=1;" parent="1" vertex="1">
          <mxGeometry x="580" y="1200" width="225" height="160" as="geometry" />
        </mxCell>
        <mxCell id="PCElJ9IsrPrvmtagwimQ-9" value="" style="edgeStyle=orthogonalEdgeStyle;rounded=0;orthogonalLoop=1;jettySize=auto;html=1;" edge="1" parent="1" source="dmDb0AKHDMFlz-anglKl-28" target="dmDb0AKHDMFlz-anglKl-29">
          <mxGeometry relative="1" as="geometry" />
        </mxCell>
        <mxCell id="dmDb0AKHDMFlz-anglKl-28" value="additional_usage= customer_usage - 100" style="rounded=0;whiteSpace=wrap;html=1;" parent="1" vertex="1">
          <mxGeometry x="300" y="1350" width="120" height="60" as="geometry" />
        </mxCell>
        <mxCell id="PCElJ9IsrPrvmtagwimQ-11" value="" style="edgeStyle=orthogonalEdgeStyle;rounded=0;orthogonalLoop=1;jettySize=auto;html=1;" edge="1" parent="1" source="dmDb0AKHDMFlz-anglKl-29" target="dmDb0AKHDMFlz-anglKl-31">
          <mxGeometry relative="1" as="geometry" />
        </mxCell>
        <mxCell id="dmDb0AKHDMFlz-anglKl-29" value="New_fee = additional_usage * .03" style="rounded=0;whiteSpace=wrap;html=1;" parent="1" vertex="1">
          <mxGeometry x="300" y="1450" width="120" height="60" as="geometry" />
        </mxCell>
        <mxCell id="PCElJ9IsrPrvmtagwimQ-22" style="edgeStyle=orthogonalEdgeStyle;rounded=0;orthogonalLoop=1;jettySize=auto;html=1;entryX=0.5;entryY=0;entryDx=0;entryDy=0;" edge="1" parent="1" source="dmDb0AKHDMFlz-anglKl-31" target="dmDb0AKHDMFlz-anglKl-17">
          <mxGeometry relative="1" as="geometry" />
        </mxCell>
        <mxCell id="dmDb0AKHDMFlz-anglKl-31" value="total_bill = new fee + basic_fee" style="rounded=0;whiteSpace=wrap;html=1;" parent="1" vertex="1">
          <mxGeometry x="300" y="1550" width="120" height="60" as="geometry" />
        </mxCell>
        <mxCell id="PCElJ9IsrPrvmtagwimQ-16" value="" style="edgeStyle=orthogonalEdgeStyle;rounded=0;orthogonalLoop=1;jettySize=auto;html=1;" edge="1" parent="1" source="dmDb0AKHDMFlz-anglKl-37" target="dmDb0AKHDMFlz-anglKl-38">
          <mxGeometry relative="1" as="geometry" />
        </mxCell>
        <mxCell id="dmDb0AKHDMFlz-anglKl-37" value="additional_usage= customer_usage - 300" style="rounded=0;whiteSpace=wrap;html=1;" parent="1" vertex="1">
          <mxGeometry x="940" y="1340" width="120" height="60" as="geometry" />
        </mxCell>
        <mxCell id="PCElJ9IsrPrvmtagwimQ-18" value="" style="edgeStyle=orthogonalEdgeStyle;rounded=0;orthogonalLoop=1;jettySize=auto;html=1;" edge="1" parent="1" source="dmDb0AKHDMFlz-anglKl-38" target="PCElJ9IsrPrvmtagwimQ-17">
          <mxGeometry relative="1" as="geometry" />
        </mxCell>
        <mxCell id="dmDb0AKHDMFlz-anglKl-38" value="New_fee = additional_usage * .02" style="rounded=0;whiteSpace=wrap;html=1;" parent="1" vertex="1">
          <mxGeometry x="940" y="1490" width="120" height="60" as="geometry" />
        </mxCell>
        <mxCell id="PCElJ9IsrPrvmtagwimQ-47" value="" style="edgeStyle=orthogonalEdgeStyle;rounded=0;orthogonalLoop=1;jettySize=auto;html=1;" edge="1" parent="1" source="PCElJ9IsrPrvmtagwimQ-4" target="PCElJ9IsrPrvmtagwimQ-37">
          <mxGeometry relative="1" as="geometry" />
        </mxCell>
        <mxCell id="PCElJ9IsrPrvmtagwimQ-4" value="sentinel_value = -1" style="shape=parallelogram;perimeter=parallelogramPerimeter;whiteSpace=wrap;html=1;fixedSize=1;" vertex="1" parent="1">
          <mxGeometry x="355" y="680" width="170" height="70" as="geometry" />
        </mxCell>
        <mxCell id="PCElJ9IsrPrvmtagwimQ-17" value="total_bill = new fee + basic_fee" style="rounded=0;whiteSpace=wrap;html=1;" vertex="1" parent="1">
          <mxGeometry x="940" y="1610" width="120" height="60" as="geometry" />
        </mxCell>
        <mxCell id="PCElJ9IsrPrvmtagwimQ-24" style="edgeStyle=orthogonalEdgeStyle;rounded=0;orthogonalLoop=1;jettySize=auto;html=1;entryX=1;entryY=0.5;entryDx=0;entryDy=0;exitX=0.5;exitY=1;exitDx=0;exitDy=0;" edge="1" parent="1" source="PCElJ9IsrPrvmtagwimQ-17" target="dmDb0AKHDMFlz-anglKl-17">
          <mxGeometry relative="1" as="geometry">
            <mxPoint x="1187.91" y="1551" as="sourcePoint" />
            <mxPoint x="812.0899999999998" y="2030" as="targetPoint" />
          </mxGeometry>
        </mxCell>
        <mxCell id="PCElJ9IsrPrvmtagwimQ-29" value="" style="edgeStyle=orthogonalEdgeStyle;rounded=0;orthogonalLoop=1;jettySize=auto;html=1;" edge="1" parent="1" source="PCElJ9IsrPrvmtagwimQ-26" target="PCElJ9IsrPrvmtagwimQ-28">
          <mxGeometry relative="1" as="geometry" />
        </mxCell>
        <mxCell id="PCElJ9IsrPrvmtagwimQ-26" value="output &quot;Area code: &quot; + customer_area_code" style="shape=parallelogram;perimeter=parallelogramPerimeter;whiteSpace=wrap;html=1;fixedSize=1;" vertex="1" parent="1">
          <mxGeometry x="500" y="2030" width="300" height="50" as="geometry" />
        </mxCell>
        <mxCell id="PCElJ9IsrPrvmtagwimQ-30" value="" style="edgeStyle=orthogonalEdgeStyle;rounded=0;orthogonalLoop=1;jettySize=auto;html=1;" edge="1" parent="1" source="PCElJ9IsrPrvmtagwimQ-28" target="dmDb0AKHDMFlz-anglKl-6">
          <mxGeometry relative="1" as="geometry" />
        </mxCell>
        <mxCell id="PCElJ9IsrPrvmtagwimQ-28" value="output &quot;Phone number: &quot; + phone_number" style="shape=parallelogram;perimeter=parallelogramPerimeter;whiteSpace=wrap;html=1;fixedSize=1;" vertex="1" parent="1">
          <mxGeometry x="510" y="2140" width="280" height="50" as="geometry" />
        </mxCell>
        <mxCell id="PCElJ9IsrPrvmtagwimQ-36" style="edgeStyle=orthogonalEdgeStyle;rounded=0;orthogonalLoop=1;jettySize=auto;html=1;" edge="1" parent="1" source="PCElJ9IsrPrvmtagwimQ-31">
          <mxGeometry relative="1" as="geometry">
            <mxPoint x="330" y="2800" as="targetPoint" />
          </mxGeometry>
        </mxCell>
        <mxCell id="PCElJ9IsrPrvmtagwimQ-31" value="output &quot;Total bill after tax: &quot; + total_bill_with_tax" style="shape=parallelogram;perimeter=parallelogramPerimeter;whiteSpace=wrap;html=1;fixedSize=1;" vertex="1" parent="1">
          <mxGeometry x="395" y="2420" width="510" height="50" as="geometry" />
        </mxCell>
        <mxCell id="PCElJ9IsrPrvmtagwimQ-34" value="" style="edgeStyle=orthogonalEdgeStyle;rounded=0;orthogonalLoop=1;jettySize=auto;html=1;" edge="1" parent="1" source="PCElJ9IsrPrvmtagwimQ-32" target="PCElJ9IsrPrvmtagwimQ-31">
          <mxGeometry relative="1" as="geometry" />
        </mxCell>
        <mxCell id="PCElJ9IsrPrvmtagwimQ-32" value="output &quot;Total bill before tax: &quot; + total_bill" style="shape=parallelogram;perimeter=parallelogramPerimeter;whiteSpace=wrap;html=1;fixedSize=1;" vertex="1" parent="1">
          <mxGeometry x="515" y="2350" width="270" height="40" as="geometry" />
        </mxCell>
        <mxCell id="PCElJ9IsrPrvmtagwimQ-38" value="" style="edgeStyle=orthogonalEdgeStyle;rounded=0;orthogonalLoop=1;jettySize=auto;html=1;" edge="1" parent="1" source="PCElJ9IsrPrvmtagwimQ-40" target="dmDb0AKHDMFlz-anglKl-9">
          <mxGeometry relative="1" as="geometry" />
        </mxCell>
        <mxCell id="PCElJ9IsrPrvmtagwimQ-45" style="edgeStyle=orthogonalEdgeStyle;rounded=0;orthogonalLoop=1;jettySize=auto;html=1;entryX=0.5;entryY=0;entryDx=0;entryDy=0;" edge="1" parent="1" source="PCElJ9IsrPrvmtagwimQ-37" target="PCElJ9IsrPrvmtagwimQ-44">
          <mxGeometry relative="1" as="geometry" />
        </mxCell>
        <mxCell id="PCElJ9IsrPrvmtagwimQ-37" value="While area_code =! sentinel_value&amp;nbsp;&amp;nbsp;" style="rhombus;whiteSpace=wrap;html=1;" vertex="1" parent="1">
          <mxGeometry x="307.5" y="780" width="265" height="180" as="geometry" />
        </mxCell>
        <mxCell id="PCElJ9IsrPrvmtagwimQ-41" value="&lt;font style=&quot;font-size: 14px;&quot;&gt;&lt;b&gt;FALSE&lt;/b&gt;&lt;/font&gt;" style="text;html=1;align=center;verticalAlign=middle;whiteSpace=wrap;rounded=0;" vertex="1" parent="1">
          <mxGeometry x="-250" y="830" width="60" height="30" as="geometry" />
        </mxCell>
        <mxCell id="PCElJ9IsrPrvmtagwimQ-46" style="edgeStyle=orthogonalEdgeStyle;rounded=0;orthogonalLoop=1;jettySize=auto;html=1;entryX=0;entryY=0.5;entryDx=0;entryDy=0;" edge="1" parent="1" source="PCElJ9IsrPrvmtagwimQ-44" target="dmDb0AKHDMFlz-anglKl-2">
          <mxGeometry relative="1" as="geometry">
            <Array as="points">
              <mxPoint x="-300" y="2840" />
            </Array>
          </mxGeometry>
        </mxCell>
        <mxCell id="PCElJ9IsrPrvmtagwimQ-44" value="output &quot;Invalid Area code&quot;" style="shape=parallelogram;perimeter=parallelogramPerimeter;whiteSpace=wrap;html=1;fixedSize=1;" vertex="1" parent="1">
          <mxGeometry x="-400" y="2250" width="200" height="90" as="geometry" />
        </mxCell>
        <mxCell id="PCElJ9IsrPrvmtagwimQ-48" value="" style="edgeStyle=orthogonalEdgeStyle;rounded=0;orthogonalLoop=1;jettySize=auto;html=1;" edge="1" parent="1" source="PCElJ9IsrPrvmtagwimQ-37" target="PCElJ9IsrPrvmtagwimQ-40">
          <mxGeometry relative="1" as="geometry">
            <mxPoint x="440" y="960" as="sourcePoint" />
            <mxPoint x="440" y="1040" as="targetPoint" />
          </mxGeometry>
        </mxCell>
        <mxCell id="PCElJ9IsrPrvmtagwimQ-40" value="&lt;font style=&quot;font-size: 14px;&quot;&gt;&lt;b&gt;TRUE&lt;/b&gt;&lt;/font&gt;" style="text;html=1;align=center;verticalAlign=middle;whiteSpace=wrap;rounded=0;" vertex="1" parent="1">
          <mxGeometry x="410" y="980" width="60" height="30" as="geometry" />
        </mxCell>
      </root>
    </mxGraphModel>
  </diagram>
</mxfile>
